<?xml version="1.0" encoding="iso-8859-1"?>
<!-- Generator: Adobe Illustrator 22.1.0, SVG Export Plug-In . SVG Version: 6.00 Build 0)  -->
<svg xmlns="http://www.w3.org/2000/svg" xmlns:xlink="http://www.w3.org/1999/xlink" version="1.1" id="Layer_1" x="0px" y="0px" viewBox="0 0 64 64" style="enable-background:new 0 0 64 64;" xml:space="preserve" width="64px" height="64px">
<linearGradient id="SVGID_1__79067" gradientUnits="userSpaceOnUse" x1="21" y1="25" x2="21" y2="33" spreadMethod="reflect">
	<stop offset="0" style="stop-color:#6DC7FF"/>
	<stop offset="1" style="stop-color:#E6ABFF"/>
</linearGradient>
<circle style="fill:url(#SVGID_1__79067);" cx="21" cy="29" r="4"/>
<linearGradient id="SVGID_2__79067" gradientUnits="userSpaceOnUse" x1="43" y1="25" x2="43" y2="33" spreadMethod="reflect">
	<stop offset="0" style="stop-color:#6DC7FF"/>
	<stop offset="1" style="stop-color:#E6ABFF"/>
</linearGradient>
<circle style="fill:url(#SVGID_2__79067);" cx="43" cy="29" r="4"/>
<linearGradient id="SVGID_3__79067" gradientUnits="userSpaceOnUse" x1="44.275" y1="33" x2="44.275" y2="39" spreadMethod="reflect">
	<stop offset="0" style="stop-color:#6DC7FF"/>
	<stop offset="1" style="stop-color:#E6ABFF"/>
</linearGradient>
<path style="fill:url(#SVGID_3__79067);" d="M49,37.1V39h-8v-2.4c0-0.09-0.01-0.19-0.02-0.29c-0.01-0.06-0.02-0.12-0.03-0.18  c-0.01-0.07-0.03-0.15-0.06-0.23c-0.04-0.16-0.1-0.32-0.17-0.49c-0.24-0.54-0.62-1.12-1.17-1.68C40.58,33.25,41.75,33,43,33  C47.24,33,49,35.67,49,37.1z"/>
<linearGradient id="SVGID_4__79067" gradientUnits="userSpaceOnUse" x1="19.725" y1="33" x2="19.725" y2="39" spreadMethod="reflect">
	<stop offset="0" style="stop-color:#6DC7FF"/>
	<stop offset="1" style="stop-color:#E6ABFF"/>
</linearGradient>
<path style="fill:url(#SVGID_4__79067);" d="M24.45,33.73c-0.55,0.56-0.93,1.14-1.17,1.68c-0.07,0.17-0.13,0.33-0.17,0.49  c-0.03,0.08-0.05,0.16-0.06,0.23c-0.01,0.06-0.02,0.12-0.03,0.18c-0.01,0.1-0.02,0.2-0.02,0.29V39h-8v-1.9c0-1.43,1.76-4.1,6-4.1  C22.25,33,23.42,33.25,24.45,33.73z"/>
<linearGradient id="SVGID_5__79067" gradientUnits="userSpaceOnUse" x1="32" y1="11" x2="32" y2="61.8825" spreadMethod="reflect">
	<stop offset="0" style="stop-color:#1A6DFF"/>
	<stop offset="1" style="stop-color:#C822FF"/>
</linearGradient>
<path style="fill:url(#SVGID_5__79067);" d="M32,29c-2.757,0-5-2.243-5-5s2.243-5,5-5s5,2.243,5,5S34.757,29,32,29z M32,21  c-1.654,0-3,1.346-3,3s1.346,3,3,3s3-1.346,3-3S33.654,21,32,21z"/>
<linearGradient id="SVGID_6__79067" gradientUnits="userSpaceOnUse" x1="32" y1="11" x2="32" y2="61.8825" spreadMethod="reflect">
	<stop offset="0" style="stop-color:#1A6DFF"/>
	<stop offset="1" style="stop-color:#C822FF"/>
</linearGradient>
<path style="fill:url(#SVGID_6__79067);" d="M41,39H23v-2.4c0-1.892,2.718-5.6,9-5.6s9,3.708,9,5.6V39z M25,37h14v-0.4  c-0.003-0.428-1.496-3.6-7-3.6s-6.997,3.172-7,3.6V37z"/>
<linearGradient id="SVGID_7__79067" gradientUnits="userSpaceOnUse" x1="32" y1="11" x2="32" y2="61.8825" spreadMethod="reflect">
	<stop offset="0" style="stop-color:#1A6DFF"/>
	<stop offset="1" style="stop-color:#C822FF"/>
</linearGradient>
<path style="fill:url(#SVGID_7__79067);" d="M55,62.174L39.63,49H9V11h46V62.174z M11,47h29.37L53,57.826V13H11V47z"/>
</svg>
