<?xml version="1.0" encoding="iso-8859-1"?>
<!-- Generator: Adobe Illustrator 22.1.0, SVG Export Plug-In . SVG Version: 6.00 Build 0)  -->
<svg xmlns="http://www.w3.org/2000/svg" xmlns:xlink="http://www.w3.org/1999/xlink" version="1.1" id="Layer_1" x="0px" y="0px" viewBox="0 0 64 64" style="enable-background:new 0 0 64 64;" xml:space="preserve" width="64px" height="64px">
<linearGradient id="SVGID_1__52540" gradientUnits="userSpaceOnUse" x1="32" y1="-1019" x2="32" y2="-963.9876" gradientTransform="matrix(1 0 0 1 0 1024)" spreadMethod="reflect">
	<stop offset="0" style="stop-color:#1A6DFF"/>
	<stop offset="1" style="stop-color:#C822FF"/>
</linearGradient>
<path style="fill:url(#SVGID_1__52540);" d="M51.12,15.71l-8.83-8.83C41.73,6.31,40.97,6,40.17,6H15c-1.65,0-3,1.35-3,3v46  c0,1.65,1.35,3,3,3h34c1.65,0,3-1.35,3-3V17.83C52,17.03,51.69,16.27,51.12,15.71z M42,9.41L48.59,16H43c-0.55,0-1-0.45-1-1V9.41z   M50,55c0,0.55-0.45,1-1,1H15c-0.55,0-1-0.45-1-1V9c0-0.55,0.45-1,1-1h25v7c0,1.65,1.35,3,3,3h7V55z"/>
<linearGradient id="SVGID_2__52540" gradientUnits="userSpaceOnUse" x1="32" y1="31" x2="32" y2="33" spreadMethod="reflect">
	<stop offset="0" style="stop-color:#6DC7FF"/>
	<stop offset="1" style="stop-color:#E6ABFF"/>
</linearGradient>
<rect x="23" y="31" style="fill:url(#SVGID_2__52540);" width="18" height="2"/>
<linearGradient id="SVGID_3__52540" gradientUnits="userSpaceOnUse" x1="32" y1="35" x2="32" y2="37" spreadMethod="reflect">
	<stop offset="0" style="stop-color:#6DC7FF"/>
	<stop offset="1" style="stop-color:#E6ABFF"/>
</linearGradient>
<rect x="23" y="35" style="fill:url(#SVGID_3__52540);" width="18" height="2"/>
<linearGradient id="SVGID_4__52540" gradientUnits="userSpaceOnUse" x1="32" y1="39" x2="32" y2="41" spreadMethod="reflect">
	<stop offset="0" style="stop-color:#6DC7FF"/>
	<stop offset="1" style="stop-color:#E6ABFF"/>
</linearGradient>
<rect x="23" y="39" style="fill:url(#SVGID_4__52540);" width="18" height="2"/>
<linearGradient id="SVGID_5__52540" gradientUnits="userSpaceOnUse" x1="28" y1="43" x2="28" y2="45" spreadMethod="reflect">
	<stop offset="0" style="stop-color:#6DC7FF"/>
	<stop offset="1" style="stop-color:#E6ABFF"/>
</linearGradient>
<rect x="23" y="43" style="fill:url(#SVGID_5__52540);" width="10" height="2"/>
</svg>
